# xmcd CD database file
#
# Track frame offsets:
#	150
#	19232
#	43498
#	61379
#	79474
#	98883
#	121831
#	141389
#	157962
#	180279
#	201595
#	218279
#	235279
#	254112
#	268510
#	285441
#
# Disc length: 4052 seconds
#
# Revision: 2
# Processed by: cddbd v1.4PL0 Copyright (c) Steve Scherf et al.
# Submitted via: CDex 1.50
#
DISCID=ed0fd210
DTITLE=Franco Battiato  - Battiato Studio Collection - Disco 1
DYEAR=1900
DGENRE=Rock
TTITLE0=Cuccurucucu
TTITLE1=Bandiera bianca
TTITLE2=Centro di gravità permanente
TTITLE3=Prospettiva Nevski
TTITLE4=Era del cinghiale bianco
TTITLE5=Up patriots to arms
TTITLE6=Sentimento nuevo
TTITLE7=Voglio vederti danzare
TTITLE8=Summer on a solitary beach
TTITLE9=Gli uccelli
TTITLE10=Un'altra vita
TTITLE11=Mal d'Africa
TTITLE12=Chan-son  egocentrique
TTITLE13=I treni di Tozeur
TTITLE14=La stagione dell'amore
TTITLE15=Le aquile
EXTD=
EXTT0=
EXTT1=
EXTT2=
EXTT3=
EXTT4=
EXTT5=
EXTT6=
EXTT7=
EXTT8=
EXTT9=
EXTT10=
EXTT11=
EXTT12=
EXTT13=
EXTT14=
EXTT15=
PLAYORDER=
